<?xml version="1.0" encoding="utf-8"?>
<!-- Generator: Adobe Illustrator 15.0.2, SVG Export Plug-In . SVG Version: 6.00 Build 0)  -->
<!DOCTYPE svg PUBLIC "-//W3C//DTD SVG 1.1//EN" "http://www.w3.org/Graphics/SVG/1.1/DTD/svg11.dtd">
<svg version="1.1" id="Layer_1" xmlns="http://www.w3.org/2000/svg" xmlns:xlink="http://www.w3.org/1999/xlink" x="0px" y="0px"
	 width="30.824px" height="56.595px" viewBox="0 0 30.824 56.595" enable-background="new 0 0 30.824 56.595" xml:space="preserve">
<circle opacity="0.87" fill="#FFFFFF" cx="5.971" cy="36.311" r="1.811"/>
<circle opacity="0.87" fill="#FFFFFF" cx="25.131" cy="36.311" r="1.811"/>
<path opacity="0.87" fill="#FFFFFF" d="M21.086,22.956c-0.391-1.082-1.568-0.814-2.65-0.424c-0.01,0.003-0.95,0.573-2.813,0.573
	c-1.862,0-2.804-0.569-2.813-0.573c-1.083-0.39-2.26-0.657-2.65,0.424c-0.279,0.77,0.391,2.178,0.654,2.565
	c0.265,0.387,2.18,2.083,4.912,2.083c2.646,0,4.299-1.479,4.744-1.945C21.108,25.11,21.389,23.792,21.086,22.956z"/>
</svg>
