<?xml version="1.0" encoding="utf-8"?>
<!-- Generator: Adobe Illustrator 15.0.2, SVG Export Plug-In . SVG Version: 6.00 Build 0)  -->
<!DOCTYPE svg PUBLIC "-//W3C//DTD SVG 1.1//EN" "http://www.w3.org/Graphics/SVG/1.1/DTD/svg11.dtd">
<svg version="1.1" id="Layer_1" xmlns="http://www.w3.org/2000/svg" xmlns:xlink="http://www.w3.org/1999/xlink" x="0px" y="0px"
	 width="30.824px" height="56.595px" viewBox="0 0 30.824 56.595" enable-background="new 0 0 30.824 56.595" xml:space="preserve">
<polygon fill="#454444" points="8.904,42.288 23.09,21.638 16.004,22.424 20.873,8.396 6.887,27.973 13.758,27.199 "/>
<circle fill="#E8C42D" cx="15.412" cy="7" r="1.959"/>
<circle fill="#E8C42D" cx="15.412" cy="2" r="0.934"/>
<circle fill="#E8C42D" cx="16.412" cy="10" r="0.934"/>
<circle fill="#E8C42D" cx="14.412" cy="15" r="0.934"/>
<circle fill="#E8C42D" cx="8.412" cy="22" r="0.934"/>
<circle fill="#E8C42D" cx="24.412" cy="28" r="0.934"/>
<circle fill="#E8C42D" cx="16.412" cy="33" r="0.934"/>
<circle fill="#E8C42D" cx="16.412" cy="39" r="0.934"/>
<circle fill="#E8C42D" cx="7.412" cy="37" r="0.934"/>
<circle fill="#E8C42D" cx="15.412" cy="0" r="1.959"/>
<circle fill="#E8C42D" cx="15.412" cy="20" r="1.959"/>
<circle fill="#E8C42D" cx="15.412" cy="40" r="1.959"/>
<circle fill="#E8C42D" cx="18.412" cy="41" r="1.959"/>
<circle fill="#E8C42D" cx="25.412" cy="38" r="1.959"/>
<circle fill="#E8C42D" cx="3.412" cy="40" r="1.959"/>
<g>
	<linearGradient id="SVGID_1_" gradientUnits="userSpaceOnUse" x1="24.4434" y1="37.9336" x2="26.3799" y2="37.9336">
		<stop  offset="0" style="stop-color:#353335"/>
		<stop  offset="1" style="stop-color:#000000"/>
	</linearGradient>
	<path fill="url(#SVGID_1_)" d="M26.38,37.68v0.508h-1.937V37.68H26.38z"/>
</g>
<g>
	<linearGradient id="SVGID_2_" gradientUnits="userSpaceOnUse" x1="14.5107" y1="20" x2="16.4473" y2="20">
		<stop  offset="0" style="stop-color:#353335"/>
		<stop  offset="1" style="stop-color:#000000"/>
	</linearGradient>
	<path fill="url(#SVGID_2_)" d="M16.447,19.747v0.507h-1.937v-0.507H16.447z"/>
</g>
<g>
	<linearGradient id="SVGID_3_" gradientUnits="userSpaceOnUse" x1="14.5107" y1="7" x2="16.4473" y2="7">
		<stop  offset="0" style="stop-color:#353335"/>
		<stop  offset="1" style="stop-color:#000000"/>
	</linearGradient>
	<path fill="url(#SVGID_3_)" d="M16.447,6.746v0.507h-1.937V6.746H16.447z"/>
</g>
<g>
	<linearGradient id="SVGID_4_" gradientUnits="userSpaceOnUse" x1="2.4434" y1="39.748" x2="4.3799" y2="39.748">
		<stop  offset="0" style="stop-color:#353335"/>
		<stop  offset="1" style="stop-color:#000000"/>
	</linearGradient>
	<path fill="url(#SVGID_4_)" d="M4.38,39.494v0.508H2.443v-0.508H4.38z"/>
</g>
</svg>
